<?xml version="1.0" encoding="UTF-8" standalone="no"?>
<!-- Created with Inkscape (http://www.inkscape.org/) -->

<svg
   width="48"
   height="48"
   viewBox="0 0 12.7 12.7"
   version="1.1"
   id="svg25244"
   xml:space="preserve"
   xmlns="http://www.w3.org/2000/svg"
   xmlns:svg="http://www.w3.org/2000/svg"><defs
     id="defs25241" /><g
     id="layer1"
     style="display:inline"><g
       id="g25848"
       transform="matrix(0.01038519,0,0,0.01038519,0.3921069,0.64270759)"><g
         stroke-width="2"
         fill="none"
         stroke-linecap="butt"
         id="g25764"
         transform="matrix(1.039874,0,0,1.0793544,-39.312698,-63.497572)"><path
           stroke="#5c5b5c"
           stroke-opacity="0.996"
           vector-effect="non-scaling-stroke"
           d="m 1177.5,312.24 q -0.47,1.38 -0.21,3.03 0.01,0.07 -0.05,0.12 -0.1,0.08 -0.16,0.19 -0.41,0.68 -0.42,-0.28 C 1176.2,232.04 1141.18,154.47 1081.89,96.61 Q 1010.29,26.74 911.76,7.52 880.96,1.52 852.75,1.51 593.15,1.47 333.56,1.52 C 251.81,1.54 170.33,30.11 108.96,84.29 42.38,143.09 1.52,227.2 1.5,316.75 q -0.03,249.4 0.21,498.81 c 0.09,88.61 40.31,174.55 105.01,233.98 q 69.01,63.38 162.54,78.94 24.2,4.03 54.17,5 0.46,0.01 0.8,0.31 0.21,0.19 0.51,0.23 a 0.11011358,0.11011358 0 0 1 -0.01,0.22 l -2.23,0.24"
           id="path25728"
           style="display:none" /><path
           stroke="#5c5b5c"
           stroke-opacity="0.996"
           vector-effect="non-scaling-stroke"
           d="m 1177.49,821.5 q -0.46,-2.35 -0.51,-4.75 -0.01,-0.22 -0.18,-0.32 -0.31,-0.18 -0.31,0.18 c -0.21,136.38 -95.37,264.4 -227.22,302.2 q -45.71,13.1 -93.26,14.45 -9.32,0.26 -13.06,1.19"
           id="path25730"
           style="display:none" /><path
           stroke="#919091"
           vector-effect="non-scaling-stroke"
           d="m 288.59,500.03 c 6.07,16.04 16.07,28.85 29.16,39.91 a 0.47,0.47 0 0 0 0.77,-0.4 q -0.91,-13.69 -0.37,-27.6 c 0.56,-14.28 12.14,-24.78 26.1,-24.92 6.3,-0.06 13.78,3.23 16.2,9.44 4.22,10.87 -8.98,19.82 -16.97,24.32 a 0.84,0.84 0 0 0 -0.42,0.69 l -0.51,17.04 a 0.93,0.93 0 0 0 0.96,0.96 c 11.86,-0.38 20.15,4.71 31.8,10.75 19.49,10.1 42.33,9.5 64.03,5.47 3.45,-0.64 6.67,-0.69 9.71,0.23 12.77,3.84 9.8,17.9 -1.48,20.91 -26.1,6.96 -54.32,6.6 -80.03,-3.35 -7.81,-3.02 -28.35,-16.74 -35.01,-4.42 q -4.59,8.49 -3.64,18.52 c 2.46,25.95 19.46,47.08 45.69,51.5 32.09,5.4 63.83,-13.93 93.52,-28.67 9.63,-4.78 19.64,-9.32 28.48,-11.88 q 41.29,-11.96 78.56,8.69 0.46,0.25 0.35,0.76 c -8.99,45.2 -47.34,80.53 -82.06,106.45 -43.58,32.54 -91.57,61.71 -138.28,91.17 -34.3,21.63 -67.15,45.69 -97.09,70.96 -49.23,41.55 -90.38,92.92 -113.2,153.75 a 1.25,1.25 0 0 0 1.17,1.69 h 826.22 a 0.44,0.44 0 0 0 0.42,-0.3 q 33.42,-99 37.77,-203.44 2.81,-67.59 -3.8,-131.94 Q 993.19,565.35 934.95,446.7 C 893.48,362.21 828.62,288.36 744.39,244.74 q -0.46,-0.23 -0.56,-0.73 -0.42,-1.98 -0.39,-3.99 c 0.24,-18.59 -2.55,-38.48 -9.55,-55.67 -9.99,-24.49 -30.09,-44.99 -55.49,-53.45 -25.72,-8.57 -56.72,-3.55 -77.09,13.92 q -34.61,29.69 -34.95,75.86 a 1.01,1.01 0 0 1 -0.99,1 c -57.06,1.41 -114.24,21.11 -162.94,50.24 -21.81,13.05 -47.12,33.21 -54.5,58.78 -4.44,15.34 -2.35,34.69 -1.15,50.47 0.39,5.13 1.36,12.05 -1.78,16.54 q -25.51,36.51 -51.07,72.99 c -6.01,8.59 -9.13,19.3 -5.34,29.33"
           id="path25732" /><path
           stroke="#919091"
           vector-effect="non-scaling-stroke"
           d="m 440.22,169.45 q -12.54,30.06 -12.43,62.6 a 0.42,0.42 0 0 0 0.61,0.38 q 50.44,-25.31 106.64,-31.02 a 0.92,0.92 0 0 0 0.47,-1.64 c -28.08,-21.78 -56.27,-33.85 -92.64,-31.41 -1.19,0.08 -2.13,-0.16 -2.65,1.09"
           id="path25734" /><path
           stroke="#919091"
           vector-effect="non-scaling-stroke"
           d="m 653.42,323.47 c -4.92,9.97 4.64,19.71 14.82,17 q 3.57,-0.94 7.8,-3.91 c 15.18,-10.65 22.79,-26.39 23.7,-44.56 q 1.23,-24.41 0.78,-58.75 c -0.24,-18.55 -1.2,-33.68 -13.81,-47.93 -14.23,-16.08 -37.97,-20.43 -56.31,-8.24 -6.51,4.33 -10.1,12.72 -6.32,19.94 5.76,11.01 14.98,3.23 23.19,1.42 15.22,-3.36 25.09,11.63 25.09,25.32 q -0.01,33.84 -0.08,67.67 -0.03,13.85 -10.12,22.95 c -3.03,2.75 -7.05,5.65 -8.74,9.09"
           id="path25736" /><path
           stroke="#919091"
           vector-effect="non-scaling-stroke"
           d="m 518.19,336.86 q -28.2,-0.29 -55.19,-0.08 -8.16,0.06 -12.49,0.75 c -12.19,1.93 -23.12,11.68 -29.53,21.93 q -14.29,22.86 -13.76,49.99 0.02,0.62 0.49,0.22 13.27,-11.27 30.56,-12.67 c 7.37,-0.59 15.71,-0.98 22.36,-2.28 28.32,-5.53 49.82,-28.49 58.04,-55.69 q 0.3,-0.97 -0.01,-1.83 -0.11,-0.33 -0.47,-0.34"
           id="path25738" /><path
           stroke="#919091"
           vector-effect="non-scaling-stroke"
           d="m 644.3511,390.4637 a 29.81,16.33 -4.9 0 0 -31.096,-13.724 29.81,16.33 -4.9 0 0 -28.3062,18.8166 29.81,16.33 -4.9 0 0 31.096,13.724 29.81,16.33 -4.9 0 0 28.3062,-18.8166"
           id="path25740" /><path
           stroke="#919091"
           vector-effect="non-scaling-stroke"
           d="m 706.0999,442.8414 a 29.36,16.3 -1.5 0 0 -29.7766,-15.5258 29.36,16.3 -1.5 0 0 -28.9232,17.063 29.36,16.3 -1.5 0 0 29.7766,15.5258 29.36,16.3 -1.5 0 0 28.9232,-17.063"
           id="path25742" /><path
           stroke="#919091"
           vector-effect="non-scaling-stroke"
           d="m 625.8349,469.7158 a 30.56,16.67 -9.9 0 0 -32.971,-11.1676 30.56,16.67 -9.9 0 0 -27.2388,21.676 30.56,16.67 -9.9 0 0 32.971,11.1676 30.56,16.67 -9.9 0 0 27.2388,-21.676"
           id="path25744" /><path
           stroke="#919091"
           vector-effect="non-scaling-stroke"
           d="m 683.2664,522.0679 a 29.81,16.56 -3.1 0 0 -30.6619,-14.9237 29.81,16.56 -3.1 0 0 -28.8709,18.1479 29.81,16.56 -3.1 0 0 30.6619,14.9237 29.81,16.56 -3.1 0 0 28.8709,-18.1479"
           id="path25746" /><path
           stroke="#919091"
           vector-effect="non-scaling-stroke"
           d="m 873.6626,594.0433 a 33.97,20.88 71.6 0 0 9.0899,-38.8241 33.97,20.88 71.6 0 0 -30.5351,-25.6425 33.97,20.88 71.6 0 0 -9.0899,38.8241 33.97,20.88 71.6 0 0 30.5351,25.6425"
           id="path25748" /><path
           stroke="#919091"
           vector-effect="non-scaling-stroke"
           d="m 691.7677,668.4874 a 42.29,22.44 -29 0 0 -47.8668,0.8761 42.29,22.44 -29 0 0 -26.1086,40.1291 42.29,22.44 -29 0 0 47.8668,-0.8761 42.29,22.44 -29 0 0 26.1086,-40.1291"
           id="path25750" /><path
           stroke="#919091"
           vector-effect="non-scaling-stroke"
           d="m 829.66,733.31 c 1.99,10.31 11.48,19.91 22.86,16.18 15.85,-5.19 22.55,-24.77 24.45,-39.74 1.64,-12.91 0.53,-38.17 -15.43,-42.96 -28.41,-8.54 -34.9,50.9 -31.88,66.52"
           id="path25752" /><path
           stroke="#919091"
           vector-effect="non-scaling-stroke"
           d="m 623.46,807.92 c -19.77,32.33 3.71,48.09 33.42,33.06 17.14,-8.67 37.83,-30.5 36.55,-51.26 -1.55,-25.08 -29.21,-18.05 -42.57,-9.57 q -17.04,10.82 -27.4,27.77"
           id="path25754" /><path
           stroke="#919091"
           vector-effect="non-scaling-stroke"
           d="m 788.8,896.91 c 3.01,7.83 10.57,14.99 19.47,13.33 21.1,-3.92 27.07,-32.16 26.57,-49.8 -0.27,-9.6 -1.58,-22.17 -9.07,-29.21 q -7.58,-7.14 -17.07,-4 c -17.86,5.92 -21.78,42.74 -21.58,58.02 q 0.1,7.56 1.68,11.66"
           id="path25756" /><path
           stroke="#919091"
           vector-effect="non-scaling-stroke"
           d="m 893.29,905.48 c 4.29,20.35 27.1,22.64 38.46,6.81 12.86,-17.93 16.23,-41 10.76,-62.21 -3.8,-14.69 -17.45,-23.17 -30.99,-13.61 q -4.88,3.45 -7.5,8.33 c -8.91,16.63 -14.86,41.13 -10.73,60.68"
           id="path25758"
           style="display:inline" /><path
           stroke="#919091"
           vector-effect="non-scaling-stroke"
           d="m 472.7,881.5133 a 45.73,23.31 -21.9 0 0 -51.1243,-4.5712 45.73,23.31 -21.9 0 0 -33.7357,38.6846 45.73,23.31 -21.9 0 0 51.1243,4.5712 45.73,23.31 -21.9 0 0 33.7357,-38.6846"
           id="path25760"
           style="display:inline" /><path
           stroke="#919091"
           vector-effect="non-scaling-stroke"
           d="m 653.0792,929.0651 a 50.07,26.88 -20.5 0 0 -56.3128,-7.6428 50.07,26.88 -20.5 0 0 -37.4856,42.7126 50.07,26.88 -20.5 0 0 56.3128,7.6428 50.07,26.88 -20.5 0 0 37.4856,-42.7126"
           id="path25762"
           style="display:inline" /></g><path
         fill="#969597"
         fill-opacity="0.992"
         d="m 1177.5,312.24 q -0.47,1.38 -0.21,3.03 0.01,0.07 -0.05,0.12 -0.1,0.08 -0.16,0.19 -0.41,0.68 -0.42,-0.28 C 1176.2,232.04 1141.18,154.47 1081.89,96.61 Q 1010.29,26.74 911.76,7.52 880.96,1.52 852.75,1.51 593.15,1.47 333.56,1.52 C 251.81,1.54 170.33,30.11 108.96,84.29 42.38,143.09 1.52,227.2 1.5,316.75 q -0.03,249.4 0.21,498.81 c 0.09,88.61 40.31,174.55 105.01,233.98 q 69.01,63.38 162.54,78.94 24.2,4.03 54.17,5 0.46,0.01 0.8,0.31 0.21,0.19 0.51,0.23 a 0.11011358,0.11011358 0 0 1 -0.01,0.22 l -2.23,0.24 q -16.92,-0.81 -33.72,-2.57 C 185.2,1121.09 97.38,1063.53 45,974.3 Q 3.5,903.6 0.7,821.94 0.5,816.17 0.5,801.93 0.5,561.46 0.5,321 0.5,308.13 0.89,301.01 C 6.4,199.89 64.22,106.19 149.62,53.04 Q 233.93,0.58 332.81,0.54 589.91,0.45 847,0.5 902.16,0.51 954.28,17.54 c 126.29,41.26 221.77,159.34 223.22,294.7 z"
         id="path25766"
         style="display:none" /><path
         fill="#232122"
         d="m 1185.139,273.52005 -0.01,549.67203 q -0.4784,-2.53649 -0.5304,-5.12694 -0.01,-0.23745 -0.1872,-0.34539 -0.3223,-0.19428 -0.3223,0.19428 c -0.2184,147.20236 -99.1728,285.38127 -236.2802,326.18087 q -47.53264,14.1395 -96.97865,15.5967 -9.69163,0.2806 -13.58076,1.2844 l -541.20242,0.032 2.31892,-0.2591 a 0.11450428,0.11885161 0 0 0 0.0104,-0.2374 q -0.31197,-0.043 -0.53034,-0.2483 -0.35356,-0.3238 -0.8319,-0.3346 -31.16502,-1.0469 -56.32997,-5.3967 -97.25942,-16.7948 -169.021125,-85.2042 C 4.3832078,1005.182 -37.440525,912.42231 -37.534114,816.78071 Q -37.783683,547.57893 -37.752487,278.38794 C -37.731687,181.73175 4.7575625,90.947251 73.992373,27.481211 137.80944,-30.998211 222.53837,-61.835367 307.54807,-61.856954 q 269.9409,-0.05397 539.89219,-0.01079 29.33484,0.01079 61.36296,6.48692 102.45878,20.745192 176.91378,96.159685 c 61.6541,62.451439 98.0705,146.176959 98.5489,236.044009 q 0.01,1.03618 0.4367,0.30222 0.062,-0.11873 0.1664,-0.20508 0.062,-0.054 0.052,-0.12952 -0.2704,-1.78093 0.2184,-3.27044 z M 260.78454,476.21201 c 6.31204,17.31285 16.71078,31.13938 30.32273,43.07704 a 0.48874078,0.50729657 0 0 0 0.8007,-0.43174 q -0.94629,-14.77637 -0.38475,-29.79019 c 0.58233,-15.41318 12.62407,-26.7464 27.14071,-26.89751 6.5512,-0.0648 14.32946,3.48632 16.84596,10.18911 4.38826,11.73258 -9.33807,21.3928 -17.64667,26.2499 a 0.87349416,0.90665771 0 0 0 -0.43674,0.74475 l -0.53034,18.3922 a 0.96708282,1.0037996 0 0 0 0.99828,1.03618 c 12.33291,-0.41015 20.95346,5.08376 33.06799,11.60306 20.26715,10.90148 44.01787,10.25387 66.58314,5.90407 3.58756,-0.69079 6.93596,-0.74475 10.09717,0.24825 13.27919,4.14472 10.19077,19.32045 -1.53901,22.5693 -27.14071,7.51231 -56.48596,7.12374 -83.22112,-3.61583 -8.12141,-3.25966 -29.48043,-18.0684 -36.40599,-4.77075 q -4.77302,9.16372 -3.78514,19.98964 c 2.55809,28.00925 20.23595,50.81601 47.51185,55.58675 33.36955,5.82852 66.37515,-15.0354 97.24901,-30.94509 10.01399,-5.15931 20.42313,-10.05958 29.61561,-12.82273 q 42.9364,-12.90908 81.69251,9.37959 0.47834,0.26984 0.36395,0.82031 c -9.34847,48.78682 -49.22763,86.92041 -85.33206,114.89728 -45.31771,35.12219 -95.22126,66.60696 -143.79378,98.40474 -35.66767,23.34644 -69.82754,49.31571 -100.96136,76.59099 -51.193,44.84718 -93.98382,100.29361 -117.71374,165.95077 a 1.2998425,1.349193 0 0 0 1.21665,1.8241 h 859.1647 a 0.45754456,0.47491594 0 0 0 0.43675,-0.3238 q 34.75255,-106.85611 39.27605,-219.58389 2.922,-72.95356 -3.9515,-142.41002 Q 993.47976,546.71544 932.9175,418.65004 C 889.79393,327.45539 822.3477,247.74506 734.75911,200.66362 q -0.47834,-0.24825 -0.58233,-0.78792 -0.43675,-2.13713 -0.40555,-4.30663 c 0.24957,-20.0652 -2.65168,-41.53356 -9.9308,-60.08766 -10.38834,-26.43339 -31.2898,-48.560151 -57.7026,-57.69149 -26.74556,-9.250067 -58.98166,-3.831708 -80.16389,15.024614 q -35.99004,32.046026 -36.3436,81.879826 a 1.0502727,1.090148 0 0 1 -1.02947,1.07935 c -59.33521,1.52189 -118.79521,22.78517 -169.43707,54.22677 -22.67966,14.08557 -48.99887,35.84536 -56.67314,63.44445 -4.61704,16.5573 -2.4437,37.44281 -1.19585,54.47502 0.40555,5.53709 1.41423,13.00622 -1.85098,17.85252 q -26.52718,39.40723 -53.10636,78.78208 c -6.24965,9.27165 -9.49405,20.83154 -5.55293,31.65746 z m 157.6761,-356.81298 q -13.04002,32.44539 -12.92564,67.56759 a 0.43674708,0.45332885 0 0 0 0.63432,0.41015 q 52.45125,-27.31846 110.89217,-33.48157 a 0.95668408,0.99300606 0 0 0 0.48874,-1.77014 c -29.19966,-23.50834 -58.51371,-36.53615 -96.33393,-33.90253 -1.23745,0.0863 -2.21493,-0.17269 -2.75566,1.1765 z"
         id="path25768"
         style="display:inline;stroke-width:1.05943" /><path
         fill="#ffffff"
         d="m 291.10727,519.28905 c -13.61195,-11.93766 -24.01069,-25.76419 -30.32273,-43.07704 -3.94112,-10.82592 -0.69672,-22.38581 5.55293,-31.65746 q 26.57918,-39.37485 53.10636,-78.78208 c 3.26521,-4.8463 2.25653,-12.31543 1.85098,-17.85252 -1.24785,-17.03221 -3.42119,-37.91772 1.19585,-54.47502 7.67427,-27.59909 33.99348,-49.35888 56.67314,-63.44445 50.64186,-31.4416 110.10186,-52.70488 169.43707,-54.22677 a 1.0502727,1.090148 0 0 0 1.02947,-1.07935 q 0.35356,-49.8338 36.3436,-81.879826 c 21.18223,-18.856322 53.41833,-24.274681 80.16389,-15.024614 26.4128,9.131339 47.31426,31.2581 57.7026,57.69149 7.27912,18.5541 10.18037,40.02246 9.9308,60.08766 q -0.0312,2.1695 0.40555,4.30663 0.10399,0.53967 0.58233,0.78792 c 87.58859,47.08144 155.03482,126.79177 198.15839,217.98642 q 60.56226,128.0654 74.5486,269.42845 6.8735,69.45646 3.9515,142.41002 -4.5235,112.72778 -39.27605,219.58389 a 0.45754456,0.47491594 0 0 1 -0.43675,0.3238 H 112.5401 a 1.2998425,1.349193 0 0 1 -1.21665,-1.8241 c 23.72992,-65.65716 66.52074,-121.10359 117.71374,-165.95077 31.13382,-27.27528 65.29369,-53.24455 100.96136,-76.59099 48.57252,-31.79778 98.47607,-63.28255 143.79378,-98.40474 36.10443,-27.97687 75.98359,-66.11046 85.33206,-114.89728 q 0.11439,-0.55047 -0.36395,-0.82031 -38.75611,-22.28867 -81.69251,-9.37959 c -9.19248,2.76315 -19.60162,7.66342 -29.61561,12.82273 -30.87386,15.90969 -63.87946,36.77361 -97.24901,30.94509 -27.2759,-4.77074 -44.95376,-27.5775 -47.51185,-55.58675 q -0.98788,-10.82592 3.78514,-19.98964 c 6.92556,-13.29765 28.28458,1.51109 36.40599,4.77075 26.73516,10.73957 56.08041,11.12814 83.22112,3.61583 11.72978,-3.24885 14.8182,-18.42458 1.53901,-22.5693 -3.16121,-0.993 -6.50961,-0.93904 -10.09717,-0.24825 -22.56527,4.3498 -46.31599,4.99741 -66.58314,-5.90407 -12.11453,-6.5193 -20.73508,-12.01321 -33.06799,-11.60306 a 0.96708282,1.0037996 0 0 1 -0.99828,-1.03618 l 0.53034,-18.3922 a 0.87349416,0.90665771 0 0 1 0.43674,-0.74475 c 8.3086,-4.8571 22.03493,-14.51732 17.64667,-26.2499 -2.5165,-6.70279 -10.29476,-10.25387 -16.84596,-10.18911 -14.51664,0.15111 -26.55838,11.48433 -27.14071,26.89751 q -0.56154,15.01382 0.38475,29.79019 a 0.48874078,0.50729657 0 0 1 -0.8007,0.43174 z M 640.16177,285.6412 c -5.11618,10.76116 4.82502,21.27407 15.41094,18.34902 q 3.71235,-1.01459 8.11101,-4.22027 c 15.78529,-11.49513 23.69873,-28.48417 24.64502,-48.09604 q 1.27904,-26.34704 0.8111,-63.41207 c -0.24957,-20.02202 -1.24785,-36.35265 -14.36066,-51.73345 -14.79741,-17.35602 -39.48402,-22.05122 -58.55531,-8.89388 -6.76958,4.6736 -10.50272,13.72938 -6.572,21.52232 5.98967,11.88369 15.57731,3.48632 24.11468,1.53269 15.82688,-3.62664 26.09044,12.55289 26.09044,27.32925 q -0.0104,36.52535 -0.0832,73.03991 -0.0312,14.94906 -10.52353,24.77119 c -3.15082,2.96822 -7.33111,6.09835 -9.0885,9.81133 z m -140.62216,14.45255 q -29.32445,-0.31301 -57.39064,-0.0863 -8.48538,0.0648 -12.98803,0.80951 c -12.67607,2.08316 -24.04189,12.60686 -30.70748,23.67024 q -14.8598,24.67405 -14.30867,53.95693 0.0208,0.6692 0.50954,0.23746 13.79913,-12.16433 31.77855,-13.67542 c 7.66387,-0.63682 16.33642,-1.05777 23.25158,-2.46093 29.44924,-5.96883 51.80653,-30.75081 60.35429,-60.10925 q 0.31196,-1.04697 -0.0104,-1.97522 -0.11438,-0.35618 -0.48874,-0.36698 z m 131.19165,57.85739 a 17.620716,31.00769 84.741551 0 0 -32.33592,-14.81306 17.620716,31.00769 84.741551 0 0 -29.43488,20.30978 17.620716,31.00769 84.741551 0 0 32.33592,14.81306 17.620716,31.00769 84.741551 0 0 29.43488,-20.30978 z m 64.21097,56.53411 a 17.592993,30.531539 88.387521 0 0 -30.96391,-16.75785 17.592993,30.531539 88.387521 0 0 -30.07648,18.41703 17.592993,30.531539 88.387521 0 0 30.96391,16.75784 17.592993,30.531539 88.387521 0 0 30.07648,-18.41702 z m -83.46549,29.007 a 17.971626,31.816059 79.392992 0 0 -34.28568,-12.0538 17.971626,31.816059 79.392992 0 0 -28.32492,23.39609 17.971626,31.816059 79.392992 0 0 34.28568,12.05379 17.971626,31.816059 79.392992 0 0 28.32492,-23.39608 z m 59.72153,56.50647 a 17.872015,31.002276 86.667751 0 0 -31.88451,-16.10796 17.872015,31.002276 86.667751 0 0 -30.0221,19.58801 17.872015,31.002276 86.667751 0 0 31.88451,16.10796 17.872015,31.002276 86.667751 0 0 30.0221,-19.58801 z m 197.98806,77.68696 a 36.53928,21.787673 72.936011 0 0 9.45235,-41.90496 36.53928,21.787673 72.936011 0 0 -31.75266,-27.67735 36.53928,21.787673 72.936011 0 0 -9.45235,41.90497 36.53928,21.787673 72.936011 0 0 31.75266,27.67734 z m -189.14778,80.35157 a 23.998475,44.383516 59.337211 0 0 -49.77544,0.94562 23.998475,44.383516 59.337211 0 0 -27.14966,43.31353 23.998475,44.383516 59.337211 0 0 49.77544,-0.94563 23.998475,44.383516 59.337211 0 0 27.14966,-43.31352 z m 143.39062,69.96656 c 2.06935,11.12815 11.93775,21.48995 23.77152,17.46396 16.482,-5.60185 23.44916,-26.73561 25.42492,-42.89355 1.70539,-13.93446 0.55113,-41.19896 -16.04526,-46.36906 -29.54282,-9.21769 -36.2916,54.93914 -33.15118,71.79865 z m -214.42202,80.53063 c -20.55831,34.89553 3.85793,51.90616 34.75259,35.68346 17.82344,-9.358 39.33843,-32.92031 38.00739,-55.32771 -1.6118,-27.0702 -30.37472,-19.48234 -44.26743,-10.32942 q -17.71946,11.67862 -28.49255,29.97367 z m 171.93277,96.05175 c 3.13002,8.45135 10.99146,16.17953 20.24634,14.3878 21.94134,-4.23107 28.14939,-34.71204 27.62945,-53.75185 -0.28076,-10.3618 -1.643,-23.92929 -9.43165,-31.52794 q -7.88225,-7.70659 -17.75065,-4.31742 c -18.57215,6.38978 -22.64846,46.13161 -22.44048,62.62414 q 0.10398,8.15992 1.74699,12.58527 z m 108.65643,9.25007 c 4.46106,21.96486 28.18059,24.43658 39.99355,7.3504 13.37278,-19.35282 16.87716,-44.25353 11.18905,-67.14663 -3.95152,-15.85572 -18.1458,-25.00865 -32.2257,-14.69002 q -5.07458,3.72378 -7.79905,8.99102 c -9.26528,17.94967 -15.45253,44.39385 -11.15785,65.49523 z M 452.23574,887.9677 a 25.022279,47.814697 66.793544 0 0 -53.16283,-4.93395 25.022279,47.814697 66.793544 0 0 -35.08087,41.7544 25.022279,47.814697 66.793544 0 0 53.16283,4.93394 25.022279,47.814697 66.793544 0 0 35.08087,-41.75439 z m 187.57164,51.32524 a 28.872576,52.319806 68.176066 0 0 -58.55821,-8.24929 28.872576,52.319806 68.176066 0 0 -38.9803,46.10204 28.872576,52.319806 68.176066 0 0 58.55821,8.24929 28.872576,52.319806 68.176066 0 0 38.9803,-46.10204 z"
         id="path25770"
         style="display:inline;stroke-width:1.05943" /><path
         fill="#ffffff"
         d="m 418.46064,119.39903 c 0.54073,-1.34919 1.51821,-1.09015 2.75566,-1.1765 37.82022,-2.63362 67.13427,10.39419 96.33393,33.90253 a 0.95668408,0.99300606 0 0 1 -0.48874,1.77014 q -58.44092,6.16311 -110.89217,33.48157 a 0.43674708,0.45332885 0 0 1 -0.63432,-0.41015 q -0.11438,-35.1222 12.92564,-67.56759 z"
         id="path25772"
         style="display:inline;stroke-width:1.05943" /><path
         fill="#232122"
         d="m 655.57271,303.99022 c -10.58592,2.92505 -20.52712,-7.58786 -15.41094,-18.34902 1.75739,-3.71298 5.93768,-6.84311 9.0885,-9.81133 q 10.49233,-9.82213 10.52353,-24.77119 0.0728,-36.51456 0.0832,-73.03991 c 0,-14.77636 -10.26356,-30.95589 -26.09044,-27.32925 -8.53737,1.95363 -18.12501,10.351 -24.11468,-1.53269 -3.93072,-7.79294 -0.19758,-16.84872 6.572,-21.52232 19.07129,-13.15734 43.7579,-8.46214 58.55531,8.89388 13.11281,15.3808 14.11109,31.71143 14.36066,51.73345 q 0.46794,37.06503 -0.8111,63.41207 c -0.94629,19.61187 -8.85973,36.60091 -24.64502,48.09604 q -4.39866,3.20568 -8.11101,4.22027 z"
         id="path25774"
         style="display:inline;stroke-width:1.05943" /><path
         fill="#232122"
         d="m 499.53961,300.09375 q 0.37436,0.0108 0.48874,0.36698 0.32236,0.92825 0.0104,1.97522 c -8.54776,29.35844 -30.90505,54.14042 -60.35429,60.10925 -6.91516,1.40316 -15.58771,1.82411 -23.25158,2.46093 q -17.97942,1.51109 -31.77855,13.67542 -0.48874,0.43174 -0.50954,-0.23746 -0.55113,-29.28288 14.30867,-53.95693 c 6.66559,-11.06338 18.03141,-21.58708 30.70748,-23.67024 q 4.50265,-0.74475 12.98803,-0.80951 28.06619,-0.22667 57.39064,0.0863 z"
         id="path25776"
         style="display:inline;stroke-width:1.05943" /><ellipse
         fill="#232122"
         cx="568.13104"
         cy="412.45544"
         transform="matrix(0.99606418,-0.0886349,0.08231412,0.99660643,0,0)"
         rx="31.007393"
         ry="17.621239"
         id="ellipse25778"
         style="stroke-width:1.05944" /><ellipse
         fill="#232122"
         cx="653.73761"
         cy="433.21472"
         transform="matrix(0.99963083,-0.02717007,0.02522007,0.99968192,0,0)"
         rx="30.531511"
         ry="17.593042"
         id="ellipse25780"
         style="stroke-width:1.05943" /><ellipse
         fill="#232122"
         cx="497.70096"
         cy="545.4306"
         transform="matrix(0.9839847,-0.17825292,0.16581641,0.98615664,0,0)"
         rx="31.814869"
         ry="17.973728"
         id="ellipse25782"
         style="stroke-width:1.05948" /><ellipse
         fill="#232122"
         cx="613.23651"
         cy="536.88635"
         transform="matrix(0.99842371,-0.05612565,0.0521062,0.99864155,0,0)"
         rx="31.00215"
         ry="17.872232"
         id="ellipse25784"
         style="stroke-width:1.05944" /><ellipse
         fill="#232122"
         cx="793.40674"
         cy="-651.57098"
         transform="matrix(0.30519717,0.95228918,-0.94523951,0.3263775,0,0)"
         rx="36.534256"
         ry="21.796101"
         id="ellipse25786"
         style="stroke-width:1.05956" /><ellipse
         fill="#232122"
         cx="245.64886"
         cy="909.96002"
         transform="matrix(0.86677359,-0.49870187,0.47106911,0.88209631,0,0)"
         rx="44.374352"
         ry="24.015421"
         id="ellipse25788"
         style="stroke-width:1.05969" /><path
         fill="#232122"
         d="m 847.20069,745.46777 c -11.83377,4.02599 -21.70217,-6.33581 -23.77152,-17.46396 -3.14042,-16.85951 3.60836,-81.01634 33.15118,-71.79865 16.59639,5.1701 17.75065,32.4346 16.04526,46.36906 -1.97576,16.15794 -8.94292,37.2917 -25.42492,42.89355 z"
         id="path25790"
         style="display:inline;stroke-width:1.05943" /><path
         fill="#232122"
         d="m 643.75974,844.2179 c -30.89466,16.2227 -55.3109,-0.78793 -34.75259,-35.68346 q 10.77309,-18.29505 28.49255,-29.97367 c 13.89271,-9.15292 42.65563,-16.74078 44.26743,10.32942 1.33104,22.4074 -20.18395,45.96971 -38.00739,55.32771 z"
         id="path25792"
         style="display:inline;stroke-width:1.05943" /><path
         fill="#969597"
         fill-opacity="0.992"
         d="m 1177.49,821.5 c -1.69,58 -18.52,112.43 -49.44,161.57 -36.01,57.23 -90,104.53 -153.68,128.26 -42.15,15.7 -86.47,22.9 -131.42,23.12 q 3.74,-0.93 13.06,-1.19 47.55,-1.35 93.26,-14.45 c 131.85,-37.8 227.01,-165.82 227.22,-302.2 q 0,-0.36 0.31,-0.18 0.17,0.1 0.18,0.32 0.05,2.4 0.51,4.75 z"
         id="path25794"
         style="display:none" /><path
         fill="#232122"
         d="m 801.18626,918.97399 c -9.25488,1.79173 -17.11632,-5.93645 -20.24634,-14.3878 q -1.64301,-4.42535 -1.74699,-12.58527 c -0.20798,-16.49253 3.86833,-56.23436 22.44048,-62.62414 q 9.8684,-3.38917 17.75065,4.31742 c 7.78865,7.59865 9.15089,21.16614 9.43165,31.52794 0.51994,19.03981 -5.68811,49.52078 -27.62945,53.75185 z"
         id="path25796"
         style="display:inline;stroke-width:1.05943" /><path
         fill="#232122"
         d="m 929.5899,921.18666 c -11.81296,17.08618 -35.53249,14.61446 -39.99355,-7.3504 -4.29468,-21.10138 1.89257,-47.54556 11.15785,-65.49523 q 2.72447,-5.26724 7.79905,-8.99102 c 14.0799,-10.31863 28.27418,-1.1657 32.2257,14.69002 5.68811,22.8931 2.18373,47.79381 -11.18905,67.14663 z"
         id="path25798"
         style="display:inline;stroke-width:1.05943" /><ellipse
         fill="#232122"
         cx="53.245033"
         cy="993.96814"
         transform="matrix(0.92288244,-0.38508181,0.36115343,0.93250641,0,0)"
         rx="47.808693"
         ry="25.033747"
         id="ellipse25800"
         style="stroke-width:1.05961" /><ellipse
         fill="#232122"
         cx="231.39832"
         cy="1107.472"
         transform="matrix(0.93225924,-0.36179097,0.33889336,0.94082479,0,0)"
         rx="52.31295"
         ry="28.884989"
         id="ellipse25802"
         style="stroke-width:1.05959" /></g></g></svg>
